#!OML:ASF E:\id_vita\Project 1\Capture day 1\Session 1\Male1.ASF
:FULLY-SPECIFIED
:DEGREES
889
root -3.39775 16.1082 -1.36864 405.38 82.0497 401.81
lowerback -4.14439 -0.260091 -6.79843
upperback 1.54094 0.185192 -2.44246
thorax 3.92241 -0.0229659 1.29402
lowerneck -5.61315 3.3133 9.58306
upperneck 10.2906 3.65273 -0.279302
head 4.19846 2.18962 -1.43203
rclavicle -1.57537e-014 2.18663e-014
rhumerus -31.1718 -27.6292 -77.754
rradius 10.7357
rwrist 31.517
rhand -19.4232 36.1758
rfingers 7.12502
rthumb 6.89661 6.30816
lclavicle -1.57537e-014 2.18663e-014
lhumerus -43.0347 46.703 54.573
lradius 8.77136
lwrist -33.0961
lhand -12.8812 46.7046
lfingers 7.12502
lthumb 13.2077 76.2662
rfemur -5.8729 0.523338 13.0335
rtibia 60.0428
rfoot 15.0918 11.8196
rtoes 2.17786
lfemur -21.7358 5.97339 -30.9403
ltibia 30.4591
lfoot -16.2993 1.35848
ltoes -0.793838
890
root -3.27393 16.1215 -1.37085 407.516 82.076 404.042
lowerback -3.94349 -0.433006 -7.03419
upperback 1.42965 -0.0588774 -2.40496
thorax 3.71174 -0.142013 1.44727
lowerneck -5.53848 3.525 9.5585
upperneck 10.4751 3.93124 -0.106342
head 4.25326 2.34219 -1.35808
rclavicle -8.84592e-015 3.06128e-014
rhumerus -31.622 -28.3541 -77.0136
rradius 9.883
rwrist 32.2367
rhand -19.8761 36.3127
rfingers 7.12502
rthumb 6.45944 6.43122
lclavicle -8.84592e-015 3.06128e-014
lhumerus -42.6252 47.2254 54.832
lradius 9.7266
lwrist -33.9415
lhand -12.7976 45.8153
lfingers 7.12502
lthumb 13.2883 75.3716
rfemur -7.17378 0.37827 12.7129
rtibia 61.3297
rfoot 14.2568 10.8822
rtoes 5.0149
lfemur -20.9208 5.71901 -31.1515
ltibia 30.1158
lfoot -16.1725 1.49869
ltoes -1.36557
891
root -3.14726 16.13 -1.37075 408.996 82.092 405.653
lowerback -3.85004 -0.511875 -7.15993
upperback 1.47788 -0.162679 -2.39487
thorax 3.71842 -0.197388 1.5202
lowerneck -5.67763 3.62547 9.58726
upperneck 10.4546 4.02966 0.0698845
head 4.27276 2.40041 -1.2999
rclavicle -9.41742e-015 1.03368e-014
rhumerus -32.2516 -29.2231 -76.0937
rradius 9.74614
rwrist 32.7602
rhand -19.6993 36.236
rfingers 7.12502
rthumb 6.63007 6.35977
lclavicle -9.41742e-015 1.03368e-014
lhumerus -41.5909 47.7533 55.5525
lradius 10.5605
lwrist -34.8197
lhand -12.6897 44.9437
lfingers 7.12502
lthumb 13.3923 74.4933
rfemur -8.35579 0.305642 12.4666
rtibia 62.395
rfoot 13.1114 10.0306
rtoes 7.49516
lfemur -20.1033 5.56457 -31.2888
ltibia 29.8717
lfoot -16.2337 1.68506
ltoes -2.38305
892
root -3.02138 16.1336 -1.37446 409.958 82.214 406.739
lowerback -3.86578 -0.634107 -7.11194
upperback 1.66142 -0.318114 -2.33725
thorax 3.93134 -0.284295 1.54006
lowerneck -6.01094 3.72162 9.70461
upperneck 10.2963 4.10503 0.0897453
head 4.28567 2.43591 -1.30264
rclavicle 3.90115e-015 2.0276e-014
rhumerus -32.6742 -29.9645 -75.2062
rradius 9.5645
rwrist 33.4775
rhand -19.682 36.963
rfingers 7.12502
rthumb 6.64683 7.0873
lclavicle 3.90115e-015 2.0276e-014
lhumerus -36.7109 44.107 61.4166
lradius 11.4092
lwrist -30.251
lhand -12.6725 44.9542
lfingers 7.12502
lthumb 13.4089 74.5027
rfemur -9.50611 0.180325 12.3606
rtibia 63.2574
rfoot 11.3275 9.51298
rtoes 8.07332
lfemur -19.3665 5.45694 -31.3085
ltibia 29.7238
lfoot -16.5063 1.86438
ltoes -3.30037
893
root -2.89787 16.1377 -1.38072 410.629 82.4706 407.485
lowerback -3.94635 -0.827387 -6.95952
upperback 1.56862 -0.59012 -2.22511
thorax 3.90012 -0.415879 1.55145
lowerneck -5.07767 3.75593 9.99206
upperneck 9.80853 4.26117 -0.0859289
head 3.99896 2.49979 -1.41392
rclavicle -1.55052e-014 -1.98785e-014
rhumerus -33.7024 -30.4183 -74.1072
rradius 9.56256
rwrist 33.9954
rhand -19.8738 36.9031
rfingers 7.12502
rthumb 6.46163 7.02168
lclavicle -1.55052e-014 -1.98785e-014
lhumerus -33.6844 40.3808 65.5011
lradius 12.4392
lwrist -26.1037
lhand -12.6821 44.9528
lfingers 7.12502
lthumb 13.3996 74.5019
rfemur -10.6755 0.0685871 12.4559
rtibia 63.9453
rfoot 9.13244 9.11022
rtoes 11.3262
lfemur -18.7308 5.21522 -31.1809
ltibia 29.6574
lfoot -16.8662 2.09318
ltoes -3.38906
894
root -2.77599 16.1403 -1.38191 412.225 82.8349 409.218
lowerback -4.00793 -1.05635 -6.87219
upperback 1.66534 -0.896826 -2.09078
thorax 4.06059 -0.575312 1.61624
lowerneck -4.9205 3.98104 9.97922
upperneck 9.70677 4.58362 -0.081874
head 3.95751 2.65462 -1.39614
rclavicle 6.16232e-015 -1.90833e-014
rhumerus -34.2203 -31.0402 -73.2248
rradius 9.38341
rwrist 34.4329
rhand -20.0437 36.3132
rfingers 7.12502
rthumb 6.2976 6.42686
lclavicle 6.16232e-015 -1.90833e-014
lhumerus -31.0535 37.7028 68.6985
lradius 13.4448
lwrist -23.0554
lhand -12.7695 44.9041
lfingers 7.12502
lthumb 13.3154 74.4587
rfemur -11.6817 -0.0842576 12.6393
rtibia 64.4878
rfoot 6.50009 8.40908
rtoes 10.3382
lfemur -18.0398 4.94749 -31.0172
ltibia 29.6202
lfoot -17.3118 2.19565
ltoes -3.19493
895
root -2.65001 16.1402 -1.38089 414.445 83.1669 411.712
lowerback -3.95689 -1.25035 -6.81603
upperback 1.83412 -1.15853 -1.99842
thorax 4.22962 -0.713458 1.65812
lowerneck -4.89596 4.07528 9.967
upperneck 9.0933 4.69145 0.160571
head 4.16937 2.71014 -1.46496
rclavicle -1.61264e-014 -7.95139e-016
rhumerus -34.8541 -31.7243 -72.1942
rradius 9.35812
rwrist 34.8101
rhand -20.0422 36.1391
rfingers 7.12502
rthumb 6.29903 6.25277
lclavicle -1.61264e-014 -7.95139e-016
lhumerus -28.5599 34.9466 71.5738
lradius 14.455
lwrist -20.0417
lhand -12.7806 44.9764
lfingers 7.12502
lthumb 13.3047 74.5317
rfemur -12.5054 -0.28223 12.7508
rtibia 64.8999
rfoot 3.78497 7.42023
rtoes 9.41905
lfemur -17.1855 4.89824 -30.9126
ltibia 29.5933
lfoot -17.9671 2.12335
ltoes -3.16842
896
root -2.52358 16.1434 -1.38343 415.669 83.3599 413.057
lowerback -3.96546 -1.36969 -6.68819
upperback 1.90571 -1.32414 -1.93809
thorax 4.32041 -0.797432 1.63468
lowerneck -5.22126 4.29069 9.63843
upperneck 9.4427 4.9186 0.695945
head 4.34068 2.84877 -1.20014
rclavicle -2.65874e-014 1.74931e-014
rhumerus -35.7556 -32.3656 -71.0331
rradius 9.6308
rwrist 34.9741
rhand -20.0188 36.215
rfingers 7.12502
rthumb 6.32165 6.32936
lclavicle -2.65874e-014 1.74931e-014
lhumerus -26.3749 31.8373 74.101
lradius 15.4625
lwrist -16.7959
lhand -12.9377 44.9862
lfingers 7.12502
lthumb 13.1533 74.5513
rfemur -13.5252 -0.354733 12.8056
rtibia 65.1783
rfoot 1.06801 6.40566
rtoes 9.29445
lfemur -16.521 4.90773 -30.8469
ltibia 29.6112
lfoot -18.6068 2.16197
ltoes -2.88686
897
root -2.40931 16.1441 -1.38464 417.596 83.5997 414.956
lowerback -3.9319 -1.52838 -6.60378
upperback 1.89067 -1.54943 -1.86091
thorax 4.30274 -0.908068 1.65041
lowerneck -4.4865 4.48441 10.3082
upperneck 8.3818 5.28688 -0.0383272
head 3.88995 2.97959 -1.57157
rclavicle 5.09386e-015 2.10712e-014
rhumerus -36.5508 -33.0567 -69.9993
rradius 9.84888
rwrist 35.0555
rhand -19.7294 35.0639
rfingers 7.12502
rthumb 6.60107 5.18674
lclavicle 5.09386e-015 2.10712e-014
lhumerus -24.6018 28.4801 76.2799
lradius 16.6904
lwrist -13.277
lhand -13.2137 44.827
lfingers 7.12502
lthumb 12.8872 74.4091
rfemur -14.7145 -0.431456 12.9105
rtibia 65.3104
rfoot -1.56554 5.11772
rtoes 7.13648
lfemur -16.1099 4.75644 -30.7728
ltibia 29.691
lfoot -19.0071 2.22506
ltoes -2.76796
898
root -2.30103 16.1336 -1.38176 419.721 83.806 417.042
lowerback -3.86928 -1.67188 -6.61876
upperback 1.79387 -1.757 -1.75711
thorax 4.18608 -1.00913 1.7531
lowerneck -4.58142 4.5823 10.1338
upperneck 8.72589 5.38802 0.320063
head 4.01576 3.05286 -1.40731
rclavicle 2.87244e-014 3.06128e-014
rhumerus -37.4466 -33.7202 -68.8256
rradius 9.91121
rwrist 35.2079
rhand -19.0806 33.4484
rfingers 7.12502
rthumb 7.22738 3.59184
lclavicle 2.87244e-014 3.06128e-014
lhumerus -23.3005 25.1252 78.1076
lradius 18.1626
lwrist -9.91911
lhand -13.3283 45.1696
lfingers 7.12502
lthumb 12.7767 74.7586
rfemur -15.9378 -0.50815 13.0248
rtibia 65.2814
rfoot -3.78612 3.54446
rtoes 4.53804
lfemur -15.7957 4.56322 -30.7132
ltibia 29.868
lfoot -19.3487 2.34806
ltoes -2.93916
899
root -2.18588 16.1191 -1.37979 420.806 83.8832 418.067
lowerback -3.9381 -1.80613 -6.70302
upperback 1.70671 -1.93794 -1.61956
thorax 4.15672 -1.1018 1.92748
lowerneck -4.24705 4.64747 10.0572
upperneck 8.51439 5.5172 0.428221
head 3.87331 3.11083 -1.35834
rclavicle 2.60035e-014 1.21259e-014
rhumerus -38.1459 -34.2134 -67.6048
rradius 9.73136
rwrist 35.4804
rhand -18.7807 33.0883
rfingers 7.12502
rthumb 7.51686 3.24183
lclavicle 2.60035e-014 1.21259e-014
lhumerus -22.1813 23.1283 79.3783
lradius 19.3904
lwrist -7.87996
lhand -13.4307 45.3108
lfingers 7.12502
lthumb 12.678 74.906
rfemur -17.169 -0.562129 13.0684
rtibia 65.0757
rfoot -5.76843 1.93941
rtoes 2.62072
lfemur -15.5381 4.45516 -30.7197
ltibia 30.1593
lfoot -19.6303 2.73925
ltoes -3.50387
